<svg xmlns="http://www.w3.org/2000/svg" viewBox="0 0 24 24" width="24" height="24" focusable="false">
  <path d="M6.00148,8.89511 L9.35975,15.706 L10.5188,15.044 L7.15964,8.23054 L6.00177,8.89483 L6.00148,8.89511 Z M12.7517,14.7606 L12.7517,7.98709 L11.2469,7.98709 L11.2469,14.7606 L12.7517,14.7606 Z M14.6382,15.706 L17.9965,8.89511 L16.8386,8.23082 L13.4795,15.0442 L14.6385,15.7062 L14.6382,15.706 Z M11.9988,0 L1.5,5.99993 L1.5,17.9998 L11.9988,24 L22.5,17.9998 L22.5,5.99993 L11.9988,0 Z M20.0111,12.9423 L16.7466,14.8082 L18.3501,17.5673 L11.9988,21.1965 L5.64764,17.5673 L7.25112,14.8082 L3.98663,12.9423 L3.98663,7.47286 L7.1677,5.6554 L11.2466,7.98709 L11.2466,5.94526 L9.6877,5.94526 L9.6877,3.65172 L11.2466,3.65172 L11.2466,2.21068 L12,1.78586 L12.7517,2.21068 L12.7517,3.65172 L14.3123,3.65172 L14.3123,5.94526 L12.7517,5.94526 L12.7517,7.98709 L16.8303,5.6554 L20.0114,7.47286 L20.0114,12.9423 L20.0111,12.9423 Z"/>
</svg>
